<?xml version="1.0" encoding="utf-8"?>
<!-- Generator: Adobe Illustrator 21.1.0, SVG Export Plug-In . SVG Version: 6.00 Build 0)  -->
<svg version="1.1" xmlns="http://www.w3.org/2000/svg" xmlns:xlink="http://www.w3.org/1999/xlink" x="0px" y="0px"
	 viewBox="0 0 1366 768" style="enable-background:new 0 0 1366 768;" xml:space="preserve">
<style type="text/css">
	.st0{fill:#333333;}
	.st1{fill:#CC9933;}
	.st2{font-family:'NirmalaUI-Semilight';}
	.st3{font-size:116.1545px;}
	.st4{font-size:23px;}
	.st5{fill:#996633;}
</style>
<g id="Background">
	<rect class="st0" width="1366" height="768"/>
</g>
<g id="Front">
	<text transform="matrix(1.0517 0 0 1 441.8137 567.9639)" class="st1 st2 st3">Blevota 2</text>
	<g id="Logo">
		<g>
			<path class="st1" d="M650.9,288.6c-1.5-6.1-2.2-12.4-2.2-18.9c0-21.7,8.5-41.3,22.3-55.9c-8-2.6-16.6-4.1-25.5-4.1
				c-18.9,0-36.3,6.5-50.2,17.4c-2.5,2-3.5,5.4-2.5,8.4C601.6,261.8,623.5,282.1,650.9,288.6z"/>
		</g>
		<g>
			<path class="st1" d="M670.9,213.8c25.9,8.6,46,29.8,53,56.3c16.6-14.9,27-36.4,27-60.4c0-4.7-0.4-9.3-1.2-13.8
				c-0.5-3.1-3-5.6-6.2-6.2c-4.5-0.8-9.1-1.2-13.8-1.2C706.6,188.5,685.7,198.2,670.9,213.8z"/>
		</g>
		<g>
			<path class="st1" d="M724,270.1c-14.4,12.9-33.4,20.7-54.2,20.7c-6.5,0-12.9-0.8-18.9-2.2c6.1,25.5,24.3,46.4,48.1,56.2
				c3.2,1.3,6.9,0.4,9.1-2.3c11.6-14,18.6-32,18.6-51.7C726.6,283.7,725.7,276.7,724,270.1z"/>
		</g>
		<g>
			<path class="st1" d="M722.4,112.5c-114.9-31.3-217.1,70.9-185.8,185.8c13.5,49.5,52.3,88.2,101.7,101.7
				c114.9,31.3,217.1-70.9,185.8-185.8C810.6,164.8,771.9,126,722.4,112.5z M760.6,344c-13.7,5.3-27.1,6.9-39.7,5.5
				c-10.5-1.1-21,1.5-29.8,7.5c-20.1,13.7-46.7,18.6-74.2,9c-21.9-7.7-39.2-25.1-46.7-47c-9.8-28.4-4.1-55.7,10.7-75.9
				c6-8.2,9.3-18.2,8.7-28.3c-0.7-11.4,1.1-23.5,5.8-35.8c8.1-21.1,25.4-37.5,46.9-44.7c43-14.4,83.6,6.5,100.2,41.1
				c4.6,9.5,12.2,17.1,21.7,21.7c34.2,16.4,55,56.4,41.5,98.9C798.6,317.9,782,335.7,760.6,344z"/>
		</g>
	</g>
	<text transform="matrix(1.0865 -0.1263 0.1154 0.9933 892.9911 642.9462)" class="st1 st2 st4">by Kothique</text>
	<rect x="1320.8" y="275.3" class="st1" width="45.2" height="217.5"/>
	<rect x="1320.8" y="275.3" class="st5" width="3" height="217.5"/>
	<polygon class="st5" points="1343.3,398.6 1338.4,398.6 1348.4,384 1338.4,369.4 1343.3,369.4 1353.3,384 	"/>
</g>
</svg>
